<?xml version="1.0" encoding="UTF-8" standalone="no"?>
<!-- Created with Inkscape (http://www.inkscape.org/) -->

<svg
   width="61.022373mm"
   height="33.082932mm"
   viewBox="0 0 61.022373 33.082932"
   version="1.1"
   id="svg1"
   xmlns="http://www.w3.org/2000/svg"
   xmlns:svg="http://www.w3.org/2000/svg">
  <defs
     id="defs1" />
  <g
     id="layer1"
     transform="translate(-645.03132,100.16075)">
    <g
       id="g115"
       transform="matrix(3.3382567,0,0,3.3382567,-1183.9131,348.90782)">
      <rect
         style="display:none;fill:#fffefc;fill-opacity:1;fill-rule:evenodd;stroke:none;stroke-width:0.200677;stroke-dasharray:none;stroke-opacity:1"
         id="rect117"
         width="15"
         height="15"
         x="772.82812"
         y="-212.11349"
         transform="matrix(1.2485663,0,0,1.2485663,-417.32868,125.81029)" />
      <path
         style="font-weight:200;font-size:35.4921px;font-family:Lexend;-inkscape-font-specification:'Lexend Ultra-Light';letter-spacing:0px;word-spacing:0px;fill:#454241;stroke-width:1.69241;stroke-linecap:round;stroke-linejoin:round"
         d="m 553.12684,-124.61164 c -0.41389,0 -0.73372,-0.11642 -0.95949,-0.34925 -0.22575,-0.23281 -0.33863,-0.55296 -0.33863,-0.96041 0,-0.38804 0.11288,-0.69848 0.33863,-0.93129 0.22577,-0.25223 0.5456,-0.37835 0.95949,-0.37835 0.41389,0 0.73371,0.11642 0.95948,0.34924 0.22575,0.23283 0.33863,0.55295 0.33863,0.9604 0,0.38806 -0.11288,0.70818 -0.33863,0.96041 -0.22577,0.23283 -0.54559,0.34925 -0.95948,0.34925 z"
         id="path111"
         aria-label="i" />
      <path
         style="font-weight:200;font-size:35.4921px;font-family:Lexend;-inkscape-font-specification:'Lexend Ultra-Light';letter-spacing:0px;word-spacing:0px;fill:#454241;stroke-width:1.66868;stroke-linecap:round;stroke-linejoin:round"
         d="m 558.80511,-124.6976 c -0.41442,0 -0.73467,-0.11302 -0.96073,-0.33908 -0.22604,-0.22605 -0.33907,-0.53687 -0.33907,-0.93246 0,-0.37675 0.11303,-0.67816 0.33907,-0.90419 0.22606,-0.24488 0.54631,-0.36734 0.96073,-0.36734 0.41442,0 0.73465,0.11303 0.9607,0.33907 0.22606,0.22606 0.33908,0.53687 0.33908,0.93246 0,0.37675 -0.11302,0.68757 -0.33908,0.93246 -0.22605,0.22606 -0.54628,0.33908 -0.9607,0.33908 z"
         id="path112"
         aria-label="i" />
      <path
         style="fill:#454241;fill-opacity:1;stroke:none;stroke-width:0.250976px;stroke-linecap:butt;stroke-linejoin:miter;stroke-opacity:1"
         d="m 554.08235,-126.07791 -0.32596,-7.71545 0.88554,-0.0296 c -0.12582,0.90246 -0.1646,7.55958 -0.23911,8.0086 z"
         id="path113" />
      <path
         style="fill:#454241;fill-opacity:1;stroke:none;stroke-width:0.250976px;stroke-linecap:butt;stroke-linejoin:miter;stroke-opacity:1"
         d="m 559.77336,-126.07791 c 0,0 -0.13741,-7.64412 -0.22614,-7.84932 l 0.91882,-0.0962 c 0,0 -0.28801,7.89479 -0.40061,8.26369 z"
         id="path114" />
      <path
         style="fill:#454241;fill-opacity:1;stroke:none;stroke-width:0.250976px;stroke-linecap:butt;stroke-linejoin:miter;stroke-opacity:1"
         d="m 553.7569,-133.79289 c 0.29947,-0.0666 6.49834,-0.32955 6.70908,-0.26299 l -0.0647,1.62051 c -0.19965,-0.0777 -6.31573,0.2246 -6.57084,0.30224 z"
         id="path115" />
    </g>
    <path
       style="fill:none;stroke:#454241;stroke-width:0.802393;stroke-linecap:butt;stroke-linejoin:miter;stroke-dasharray:none;stroke-opacity:1"
       d="m 685.64257,-87.489579 c 0.74853,3.25502 1.54075,3.72151 4.72442,8.81039 0.75758,-1.82573 -0.26925,-5.12585 -0.26925,-5.12585 0,0 0.54096,1.22932 1.57818,1.78075 0.27426,-1.28409 -0.65655,-4.03462 -0.65655,-4.03462 0,0 1.95556,3.5588 3.8428,4.73514 0.33178,-2.5901 -1.0493,-5.66498 -1.0493,-5.66498 0,0 2.01875,2.09473 3.83372,3.09822 -0.0334,-2.03704 -1.74032,-4.81641 -1.74032,-4.81641 0,0 3.06421,1.31897 4.55995,1.26666 -0.59703,-1.73782 -2.90712,-3.75085 -2.90712,-3.75085 0,0 3.60794,-0.0575 4.69204,-0.94106 -1.47527,-1.39779 -4.98447,-1.39029 -4.98447,-1.39029 0,0 5.17012,-0.8805 6.69916,-2.07385 -1.58648,-0.91705 -4.13432,-0.70748 -4.13432,-0.70748 0,0 4.8736,-0.8657 5.68608,-3.43892 -4.0154,-0.274671 -8.0328,2.94246 -11.57926,3.2664 -2.88661,0.38471 -2.12095,3.92004 -4.31867,5.37727 -2.11123,0.57623 -4.51552,-1.77304 -3.97718,3.60948 z"
       id="path116" />
    <path
       style="fill:none;stroke:#454241;stroke-width:0.802393;stroke-linecap:butt;stroke-linejoin:miter;stroke-dasharray:none;stroke-opacity:1"
       d="m 665.95394,-87.787969 c -0.49367,3.24202 -1.23503,3.75698 -3.97823,8.97361 -0.87595,-1.73195 -0.11337,-5.03853 -0.11337,-5.03853 0,0 -0.43935,1.24337 -1.41438,1.85948 -0.36345,-1.23707 0.34637,-3.99856 0.34637,-3.99856 0,0 -1.65313,3.62819 -3.4145,4.91862 -0.51534,-2.51158 0.61099,-5.62372 0.61099,-5.62372 0,0 -1.82255,2.1993 -3.5259,3.31525 -0.11754,-1.9969 1.34994,-4.84371 1.34994,-4.84371 0,0 -2.9032,1.51666 -4.37152,1.57539 0.45682,-1.74541 2.57064,-3.88615 2.57064,-3.88615 0,0 -3.53679,0.2084 -4.66316,-0.57661 1.34169,-1.47702 4.77811,-1.72752 4.77811,-1.72752 0,0 -5.12681,-0.48216 -6.71154,-1.53813 1.48591,-1.01459 3.99594,-0.99662 3.99594,-0.99662 0,0 -4.83542,-0.48937 -5.82008,-2.94918 3.91125,-0.5641 8.08124,2.29063 11.57747,2.3471 2.85456,0.16506 2.36473,3.68226 4.62364,4.94759 2.10949,0.40888 4.29087,-2.06797 4.15941,3.24169 z"
       id="path117" />
  </g>
</svg>
